<svg width="1200" height="760" viewBox="0 0 1200 760" fill="none" xmlns="http://www.w3.org/2000/svg">
  <rect width="1200" height="760" rx="44" fill="#050816"/>
  <rect x="1" y="1" width="1198" height="758" rx="43" stroke="#34D399" stroke-opacity=".22" stroke-width="2"/>
  <circle cx="250" cy="160" r="210" fill="#34D399" opacity=".16"/>
  <circle cx="1020" cy="590" r="260" fill="#F59E0B" opacity=".15"/>
  <rect x="86" y="86" width="1028" height="588" rx="36" fill="#0B1020" stroke="#263452" stroke-width="2"/>
  <rect x="130" y="132" width="940" height="98" rx="28" fill="#111A2D"/>
  <rect x="164" y="166" width="300" height="30" rx="15" fill="#34D399"/>
  <rect x="816" y="158" width="202" height="46" rx="23" fill="#FBBF24"/>
  <rect x="130" y="278" width="286" height="266" rx="32" fill="#111827"/>
  <rect x="456" y="278" width="286" height="266" rx="32" fill="#111827"/>
  <rect x="782" y="278" width="286" height="266" rx="32" fill="#111827"/>
  <circle cx="273" cy="370" r="54" fill="#34D399"/>
  <path d="M248 370L266 388L302 348" stroke="#07111F" stroke-width="14" stroke-linecap="round" stroke-linejoin="round"/>
  <rect x="190" y="458" width="166" height="20" rx="10" fill="#CBD5E1" opacity=".8"/>
  <rect x="518" y="354" width="162" height="98" rx="28" fill="#FBBF24"/>
  <rect x="510" y="474" width="178" height="20" rx="10" fill="#CBD5E1" opacity=".8"/>
  <path d="M881 380C881 337 916 302 959 302C1002 302 1037 337 1037 380C1037 442 959 490 959 490C959 490 881 442 881 380Z" fill="#34D399"/>
  <circle cx="959" cy="380" r="28" fill="#07111F"/>
  <text x="132" y="626" fill="#F8FBFF" font-family="Arial, sans-serif" font-size="58" font-weight="900">Food Donor</text>
  <text x="132" y="678" fill="#34D399" font-family="Arial, sans-serif" font-size="28" font-weight="800">Donation lifecycle and admin dashboard</text>
</svg>
