<svg width="1200" height="760" viewBox="0 0 1200 760" fill="none" xmlns="http://www.w3.org/2000/svg">
  <rect width="1200" height="760" rx="44" fill="#050816"/>
  <rect x="1" y="1" width="1198" height="758" rx="43" stroke="#8B5CF6" stroke-opacity=".24" stroke-width="2"/>
  <circle cx="1000" cy="160" r="250" fill="#8B5CF6" opacity=".18"/>
  <circle cx="210" cy="610" r="250" fill="#22D3EE" opacity=".13"/>
  <rect x="80" y="84" width="1040" height="592" rx="36" fill="#0B1020" stroke="#263452" stroke-width="2"/>
  <rect x="130" y="130" width="420" height="452" rx="32" fill="#111827"/>
  <rect x="168" y="176" width="134" height="22" rx="11" fill="#22D3EE"/>
  <rect x="168" y="238" width="318" height="18" rx="9" fill="#CBD5E1" opacity=".72"/>
  <rect x="168" y="286" width="260" height="18" rx="9" fill="#64748B"/>
  <rect x="168" y="334" width="300" height="18" rx="9" fill="#64748B"/>
  <rect x="168" y="430" width="154" height="48" rx="24" fill="#8B5CF6"/>
  <rect x="610" y="130" width="440" height="190" rx="30" fill="#111827"/>
  <rect x="654" y="178" width="272" height="18" rx="9" fill="#22D3EE"/>
  <rect x="654" y="226" width="332" height="18" rx="9" fill="#CBD5E1" opacity=".72"/>
  <rect x="610" y="366" width="440" height="216" rx="30" fill="#111827"/>
  <path d="M670 520V454M764 520V424M858 520V476M952 520V402" stroke="#22D3EE" stroke-width="30" stroke-linecap="round"/>
  <text x="132" y="634" fill="#F8FBFF" font-family="Arial, sans-serif" font-size="58" font-weight="900">AI SQL Assistant</text>
  <text x="132" y="686" fill="#22D3EE" font-family="Arial, sans-serif" font-size="28" font-weight="800">Natural language SQL, summaries, and charts</text>
</svg>
